<svg xmlns="http://www.w3.org/2000/svg" version="1.1" xmlns:xlink="http://www.w3.org/1999/xlink" viewBox="0 0 0.7539874967916969 0.6679116834586638"><g transform="matrix(0.8493246390312063,0,0,0.8493246390312063,-1.3874607714010336,-0.5769448336316366)"><g transform="matrix(1,0,0,1,0,0)"><g clip-path="url(#SvgjsClipPath105342)"><path d=" M 1.75973154296875 1.0724999999999998 L 1.918335386036282 0.7977899574477663 L 2.2355494820723387 0.7977899574477663 L 2.3941432524383104 1.0724999999999998 L 2.2355494820723387 1.3472100425522333 L 1.918335386036282 1.3472100425522333 L 1.75973154296875 1.0724999999999998 Z" fill="#ffffff" transform="matrix(1,0,0,1,0,0)" fill-rule="nonzero"></path></g></g><g transform="matrix(1,0,0,1,0,0)"><path d=" M 1.8880315429687498 1.1797499999999999 L 1.8880315429687498 0.9667499999999998 L 1.9465315429687498 0.9667499999999998 L 1.9465315429687498 1.0477499999999997 L 2.0113315429687497 0.9667499999999998 L 2.07733154296875 0.9667499999999998 L 1.9999315429687499 1.06215 L 2.08273154296875 1.1797499999999999 L 2.0155315429687497 1.1797499999999999 L 1.9627315429687497 1.1014499999999998 L 1.9465315429687498 1.1182499999999997 L 1.9465315429687498 1.1797499999999999 L 1.8880315429687498 1.1797499999999999 M 2.1739233398437494 1.18125 Q 2.1532233398437497 1.18125 2.1344733398437494 1.1739 Q 2.1157233398437496 1.1665499999999998 2.1013233398437494 1.1522999999999999 Q 2.0869233398437497 1.1380499999999998 2.07867333984375 1.1178 Q 2.0704233398437495 1.0975499999999998 2.0704233398437495 1.0714499999999998 Q 2.0704233398437495 1.0489499999999998 2.0788233398437495 1.02975 Q 2.0872233398437494 1.0105499999999998 2.1020733398437494 0.9959999999999998 Q 2.1169233398437495 0.9814499999999998 2.1367233398437495 0.9733499999999998 Q 2.1565233398437496 0.9652499999999998 2.1796233398437495 0.9652499999999998 Q 2.2084233398437494 0.9652499999999998 2.2318233398437495 0.9776999999999998 Q 2.2552233398437496 0.9901499999999999 2.2666233398437496 1.01175 L 2.2231233398437498 1.0450499999999998 Q 2.21682333984375 1.0324499999999999 2.2042233398437494 1.0248 Q 2.1916233398437495 1.0171499999999998 2.1775233398437495 1.0171499999999998 Q 2.1670233398437495 1.0171499999999998 2.15832333984375 1.0213499999999998 Q 2.1496233398437496 1.02555 2.1431733398437496 1.0330499999999998 Q 2.1367233398437495 1.0405499999999999 2.1332733398437496 1.0509 Q 2.1298233398437496 1.0612499999999998 2.1298233398437496 1.0735499999999998 Q 2.1298233398437496 1.08615 2.1334233398437497 1.09635 Q 2.1370233398437497 1.10655 2.1434733398437498 1.1139 Q 2.1499233398437494 1.1212499999999999 2.1589233398437497 1.1252999999999997 Q 2.1679233398437496 1.1293499999999999 2.1790233398437495 1.1293499999999999 Q 2.1931233398437495 1.1293499999999999 2.2060233398437497 1.1222999999999999 Q 2.21892333984375 1.1152499999999999 2.2294233398437497 1.10235 L 2.2294233398437497 1.1593499999999999 Q 2.2054233398437497 1.18125 2.1739233398437494 1.18125 M 2.2264233398437496 1.10835 L 2.1871233398437497 1.10835 L 2.1871233398437497 1.06635 L 2.2747233398437494 1.06635 L 2.2747233398437494 1.1797499999999999 L 2.2264233398437496 1.1797499999999999 L 2.2264233398437496 1.10835" fill="#000000" fill-rule="nonzero"></path></g><g transform="matrix(1,0,0,1,0,0)"></g></g><defs><clipPath id="SvgjsClipPath105342"><path d=" M 1.75973154296875 0.7977899574477663 h 0.6354958984375001 v 0.5494200851044669 h -0.6354958984375001 Z"></path></clipPath></defs></svg>